<mxfile host="app.diagrams.net" modified="2024-01-20T06:31:28.027Z" agent="Mozilla/5.0 (Macintosh; Intel Mac OS X 10_15_7) AppleWebKit/537.36 (KHTML, like Gecko) Chrome/116.0.0.0 Safari/537.36" version="22.1.21" etag="boSD8PB1OWR9ZdnqSx_y" type="github">
  <diagram name="Page-1" id="g-KWdj4RCP9LO7Gkuhvm">
    <mxGraphModel>
      <root>
        <mxCell id="0" />
        <mxCell id="1" parent="0" />
      </root>
    </mxGraphModel>
  </diagram>
</mxfile>
